<svg width="56" height="56" viewBox="0 0 56 56" fill="none" xmlns="http://www.w3.org/2000/svg">
<path d="M5.31603 24.5933H9.46876V38.0578H5.31603C3.12469 38.0578 1.35268 36.2939 1.35268 34.1127V28.5384C1.35268 26.3571 3.12469 24.5933 5.31603 24.5933Z" stroke="black" stroke-width="2" stroke-linecap="round" stroke-linejoin="round"/>
<path d="M49.684 38.0713H45.5312V24.6068H49.684C51.8753 24.6068 53.6473 26.3706 53.6473 28.5519V34.1262C53.6473 36.3074 51.8753 38.0713 49.684 38.0713Z" stroke="black" stroke-width="2" stroke-linecap="round" stroke-linejoin="round"/>
<path d="M9.42819 26.8288V20.8371C9.42819 11.183 17.4766 3.34668 27.4189 3.34668C37.3475 3.34668 45.4095 11.183 45.4095 20.8371V28.835" stroke="black" stroke-width="2" stroke-linecap="round" stroke-linejoin="round"/>
<path d="M45.5718 34.665V35.0017C45.5718 43.3766 38.7543 50.1627 30.3406 50.1627" stroke="black" stroke-width="2" stroke-linecap="round" stroke-linejoin="round"/>
<path d="M27.4865 47.6582H25.6603C24.2708 47.6582 23.1444 48.7764 23.1444 50.1559C23.1444 51.5353 24.2708 52.6535 25.6603 52.6535H27.4865C28.876 52.6535 30.0025 51.5353 30.0025 50.1559C30.0025 48.7764 28.876 47.6582 27.4865 47.6582Z" stroke="black" stroke-width="2" stroke-linecap="round" stroke-linejoin="round"/>
</svg>
