<svg width="56" height="56" viewBox="0 0 56 56" fill="none" xmlns="http://www.w3.org/2000/svg">
<path d="M13.135 3.24707C15.8466 3.24707 18.0429 5.47867 18.0429 8.23388V10.7273H8.22699V8.23388C8.22699 5.47867 10.4233 3.24707 13.135 3.24707Z" stroke="black" stroke-width="2" stroke-linecap="round" stroke-linejoin="round"/>
<path d="M18.0307 33.7788V8.23388C18.0307 5.59087 16.0184 3.45901 13.4663 3.28447V3.24707H40.9264C44.7055 3.24707 47.773 6.36383 47.773 10.2161V46.5077H25.8466" stroke="black" stroke-width="2" stroke-linecap="round" stroke-linejoin="round"/>
<path d="M17.0736 52.7531C21.912 52.7531 25.8344 48.7678 25.8344 43.8517C25.8344 38.9355 21.912 34.9502 17.0736 34.9502C12.2352 34.9502 8.31288 38.9355 8.31288 43.8517C8.31288 48.7678 12.2352 52.7531 17.0736 52.7531Z" stroke="black" stroke-width="2" stroke-linecap="round" stroke-linejoin="round"/>
<path d="M13.5522 43.2657L16.2761 46.0458L20.3742 41.8818" stroke="black" stroke-width="2" stroke-linecap="round" stroke-linejoin="round"/>
<path d="M29.4908 9.9541H23.1104V19.9028H29.4908V9.9541Z" stroke="black" stroke-width="2" stroke-linecap="round" stroke-linejoin="round"/>
<path d="M34.5706 9.9541H42.4601" stroke="black" stroke-width="2" stroke-linecap="round" stroke-linejoin="round"/>
<path d="M34.5706 19.9023H42.4601" stroke="black" stroke-width="2" stroke-linecap="round" stroke-linejoin="round"/>
<path d="M23.1104 24.9893H42.4601" stroke="black" stroke-width="2" stroke-linecap="round" stroke-linejoin="round"/>
<path d="M23.1104 30.2383H42.4601" stroke="black" stroke-width="2" stroke-linecap="round" stroke-linejoin="round"/>
<path d="M23.1104 35.4863H42.4601" stroke="black" stroke-width="2" stroke-linecap="round" stroke-linejoin="round"/>
<path d="M34.5706 14.9287H42.4601" stroke="black" stroke-width="2" stroke-linecap="round" stroke-linejoin="round"/>
</svg>
