<svg width="56" height="56" viewBox="0 0 56 56" fill="none" xmlns="http://www.w3.org/2000/svg">
<path d="M18.4982 23.9893C20.8067 27.3046 25.6999 33.4802 32.4301 37.7543C33.6982 38.5507 35.3238 38.4044 36.4618 37.4455L40.7048 33.854C42.0866 32.6838 44.1512 32.7814 45.4192 34.0815L53.011 41.8985C54.3603 43.2798 54.3278 45.5226 52.9623 46.8714L46.7685 52.9983C45.9394 53.8108 44.7852 54.1684 43.6635 53.9246C36.2667 52.397 8.80927 44.6612 2.07903 12.8245C1.83518 11.6543 2.16031 10.4355 2.9894 9.5904L9.31323 3.05728C10.63 1.69215 12.7759 1.6434 14.1577 2.94352L22.1885 10.4842C23.554 11.7681 23.6678 13.9296 22.4486 15.3597L18.7421 19.6826C17.7016 20.9015 17.6041 22.6891 18.5145 24.0055" stroke="black" stroke-width="2" stroke-linecap="round" stroke-linejoin="round"/>
</svg>
