<svg width="56" height="56" viewBox="0 0 56 56" fill="none" xmlns="http://www.w3.org/2000/svg">
<path d="M17.6371 11.1016H11.9171C10.4197 11.1016 9.20572 12.3167 9.20572 13.8157V48.0466C9.20572 49.5456 10.4197 50.7607 11.9171 50.7607H17.6371C19.1346 50.7607 20.3486 49.5456 20.3486 48.0466V13.8157C20.3486 12.3167 19.1346 11.1016 17.6371 11.1016Z" stroke="black" stroke-width="2" stroke-linecap="round" stroke-linejoin="round"/>
<path d="M7.90572 14.8193H3.2381V47.0424H8.21524" stroke="black" stroke-width="2" stroke-linecap="round" stroke-linejoin="round"/>
<path d="M47.0048 14.8193H52.7619V47.0424H21.1162" stroke="black" stroke-width="2" stroke-linecap="round" stroke-linejoin="round"/>
<path d="M41.7181 5.23926H26.8733V25.9984H46.6829V10.4445L41.7181 5.23926Z" stroke="black" stroke-width="2" stroke-linecap="round" stroke-linejoin="round"/>
<path d="M25.5981 15.0176H21.921" stroke="black" stroke-width="2" stroke-linecap="round" stroke-linejoin="round"/>
<path d="M31.021 29.7285H28.0124V32.7401H31.021V29.7285Z" fill="black"/>
<path d="M37.7191 29.7285H34.7105V32.7401H37.7191V29.7285Z" fill="black"/>
<path d="M44.4295 29.7285H41.421V32.7401H44.4295V29.7285Z" fill="black"/>
<path d="M31.021 34.9092H28.0124V37.9208H31.021V34.9092Z" fill="black"/>
<path d="M37.7191 34.9092H34.7105V37.9208H37.7191V34.9092Z" fill="black"/>
<path d="M44.4295 34.9092H41.421V37.9208H44.4295V34.9092Z" fill="black"/>
<path d="M31.021 40.0771H28.0124V43.0888H31.021V40.0771Z" fill="black"/>
<path d="M37.7191 40.0771H34.7105V43.0888H37.7191V40.0771Z" fill="black"/>
<path d="M44.4295 40.0771H41.421V43.0888H44.4295V40.0771Z" fill="black"/>
</svg>
