<svg width="36" height="52" viewBox="0 0 36 52" fill="none" xmlns="http://www.w3.org/2000/svg">
<g clip-path="url(#clip0_71_37)">
<path d="M20.1467 50.6777C19.4674 50.7158 18.7754 50.7411 18.0577 50.7411C18.7625 50.7411 19.4546 50.7158 20.1467 50.6777V50.6777Z" stroke="#818181" stroke-width="2" stroke-linecap="round" stroke-linejoin="round"/>
<path d="M18.0449 50.7284C17.2118 50.7284 16.3916 50.6904 15.5842 50.6396C16.3916 50.6904 17.199 50.7284 18.0449 50.7284Z" stroke="#818181" stroke-width="2" stroke-linecap="round" stroke-linejoin="round"/>
<path d="M15.2125 50.6267C14.4051 50.5633 13.5977 50.4872 12.8288 50.3857C13.5977 50.4872 14.3923 50.576 15.2125 50.6267Z" stroke="#818181" stroke-width="2" stroke-linecap="round" stroke-linejoin="round"/>
<path d="M22.3766 50.4873C21.8127 50.5507 21.236 50.6015 20.6465 50.6395C21.236 50.6015 21.8127 50.5507 22.3766 50.4873Z" stroke="#818181" stroke-width="2" stroke-linecap="round" stroke-linejoin="round"/>
<path d="M26.5803 49.7373C25.3499 50.0424 24.0299 50.284 22.633 50.462C24.0299 50.2967 25.3628 50.0552 26.5803 49.7373V49.7373Z" stroke="#818181" stroke-width="2" stroke-linecap="round" stroke-linejoin="round"/>
<path d="M34.7184 43.7359C34.7184 41.7652 32.7704 39.9853 29.6305 38.7139C29.9381 39.7056 30.1047 40.7608 30.1047 41.8415C30.1047 44.9691 28.7462 47.7789 26.5803 49.7368C31.4503 48.5163 34.7056 46.2914 34.7056 43.7359H34.7184Z" stroke="#818181" stroke-width="2" stroke-linecap="round" stroke-linejoin="round"/>
<path d="M8.54824 41.8546C8.54824 40.4179 8.84301 39.0448 9.35565 37.7861C4.58811 39.0194 1.39694 41.2189 1.39694 43.7363C1.39694 46.8385 6.19011 49.4575 12.8416 50.3729C10.2399 48.415 8.54824 45.3382 8.54824 41.8419V41.8546Z" stroke="#818181" stroke-width="2" stroke-linecap="round" stroke-linejoin="round"/>
<path d="M18.0449 50.7285H18.0575H18.0702H18.0575H18.0449Z" stroke="#818181" stroke-width="2" stroke-linecap="round" stroke-linejoin="round"/>
<path d="M22.6338 50.4619C22.5438 50.4619 22.4666 50.4746 22.3766 50.4873C22.4666 50.4873 22.5438 50.4746 22.6338 50.4619Z" stroke="#818181" stroke-width="2" stroke-linecap="round" stroke-linejoin="round"/>
<path d="M15.5982 50.6523C15.4696 50.6523 15.3411 50.6396 15.2253 50.627C15.3539 50.627 15.4825 50.6396 15.5982 50.6523Z" stroke="#818181" stroke-width="2" stroke-linecap="round" stroke-linejoin="round"/>
<path d="M20.6465 50.6396C20.4799 50.6396 20.3133 50.665 20.1467 50.6777C20.3133 50.6777 20.4799 50.6523 20.6465 50.6396Z" stroke="#818181" stroke-width="2" stroke-linecap="round" stroke-linejoin="round"/>
<path d="M29.6305 38.7142C28.2848 34.3406 24.1709 31.1494 19.3265 31.1494C14.8281 31.1494 10.9705 33.8956 9.35564 37.7861" stroke="#818181" stroke-width="2" stroke-linecap="round" stroke-linejoin="round"/>
<path d="M9.35565 37.7861C8.83019 39.0448 8.54824 40.4052 8.54824 41.8546C8.54824 45.3382 10.2399 48.4277 12.8416 50.3856C13.6105 50.4874 14.4051 50.5763 15.2254 50.6272C15.3535 50.6272 15.4817 50.6399 15.597 50.6526C16.4044 50.7035 17.2118 50.7416 18.0577 50.7416H18.0705C18.7754 50.7416 19.4674 50.7162 20.1595 50.6781C20.3261 50.6781 20.4927 50.6526 20.6593 50.6399C21.2488 50.6018 21.8256 50.5509 22.3895 50.4874C22.4792 50.4874 22.5561 50.4746 22.6458 50.4619C24.0427 50.2966 25.3756 50.0551 26.5931 49.7372C28.7462 47.7793 30.1175 44.9695 30.1175 41.8419C30.1175 40.7485 29.9509 39.7059 29.6433 38.7143" stroke="#818181" stroke-width="2" stroke-linecap="round" stroke-linejoin="round"/>
<path d="M20.5952 37.6843C21.4163 37.6843 22.0819 37.2801 22.0819 36.7816C22.0819 36.2831 21.4163 35.8789 20.5952 35.8789C19.7742 35.8789 19.1086 36.2831 19.1086 36.7816C19.1086 37.2801 19.7742 37.6843 20.5952 37.6843Z" fill="#818181"/>
<path d="M23.4404 39.9216C24.2614 39.9216 24.927 39.5174 24.927 39.0189C24.927 38.5204 24.2614 38.1162 23.4404 38.1162C22.6193 38.1162 21.9537 38.5204 21.9537 39.0189C21.9537 39.5174 22.6193 39.9216 23.4404 39.9216Z" fill="#818181"/>
<path d="M19.3265 41.4987C20.1475 41.4987 20.8131 41.0946 20.8131 40.596C20.8131 40.0975 20.1475 39.6934 19.3265 39.6934C18.5054 39.6934 17.8398 40.0975 17.8398 40.596C17.8398 41.0946 18.5054 41.4987 19.3265 41.4987Z" fill="#818181"/>
<path d="M1.39694 43.736V1.27148" stroke="#818181" stroke-width="2" stroke-linecap="round" stroke-linejoin="round"/>
<path d="M19.6212 11.9381L1.28159 4.2207V19.6427L19.6212 11.9381Z" stroke="#818181" stroke-width="2" stroke-linecap="round" stroke-linejoin="round"/>
</g>
<defs>
<clipPath id="clip0_71_37">
<rect width="36" height="52" fill="white"/>
</clipPath>
</defs>
</svg>
