<svg width="38" height="34" viewBox="0 0 38 34" fill="none" xmlns="http://www.w3.org/2000/svg">
<g clip-path="url(#clip0_437_25)">
<path d="M37.9999 16.7278C37.9999 15.1978 36.7904 13.9562 35.2954 13.9562H24.4796C24.2601 13.9562 24.0884 13.7639 24.1084 13.5409L24.7211 6.41856C24.7331 6.28356 24.7271 6.14447 24.7052 6.01151C23.5336 -0.844946 20.5657 -0.329484 19.0867 0.417117C18.5578 0.683029 18.2245 1.23735 18.2325 1.84077L18.2923 7.27357C18.2963 7.57426 18.2145 7.86881 18.0588 8.12245L12.8156 16.691L8.59424 19.8042L8.81578 31.4941L13.4822 33.0876H30.9264C32.4193 33.0876 33.6308 31.848 33.6308 30.3159C33.6308 29.7391 33.4592 29.2032 33.1638 28.7614C33.1738 28.6529 33.1798 28.5445 33.1818 28.4361C34.3354 28.1191 35.1857 27.0432 35.1857 25.7627C35.1857 25.014 34.8943 24.337 34.4252 23.8379C35.3134 23.3838 35.9261 22.4449 35.9261 21.3588C35.9261 20.6428 35.6587 19.9903 35.2216 19.4994H35.2954C36.7884 19.4994 37.9999 18.2599 37.9999 16.7278Z" fill="#CBE5FC"/>
<path d="M10.3268 16.2344H1.22948C0.550455 16.2344 0 16.7985 0 17.4944V32.7394C0 33.4353 0.550455 33.9994 1.22948 33.9994H10.3268C11.0058 33.9994 11.5563 33.4353 11.5563 32.7394V17.4944C11.5563 16.7985 11.0058 16.2344 10.3268 16.2344Z" fill="#7FC2FA"/>
</g>
<defs>
<clipPath id="clip0_437_25">
<rect width="38" height="34" fill="white"/>
</clipPath>
</defs>
</svg>
