<svg width="48" height="48" viewBox="0 0 48 48" fill="none" xmlns="http://www.w3.org/2000/svg">
<path d="M24 46.8569C36.6237 46.8569 46.8571 36.6234 46.8571 23.9997C46.8571 11.3761 36.6237 1.14258 24 1.14258C11.3764 1.14258 1.14286 11.3761 1.14286 23.9997C1.14286 36.6234 11.3764 46.8569 24 46.8569Z" stroke="#818181" stroke-width="2" stroke-linejoin="round"/>
<path d="M24 41.1422C33.4677 41.1422 41.1429 33.467 41.1429 23.9993C41.1429 14.5316 33.4677 6.85645 24 6.85645C14.5323 6.85645 6.85715 14.5316 6.85715 23.9993C6.85715 33.467 14.5323 41.1422 24 41.1422Z" stroke="#818181" stroke-width="2" stroke-linejoin="round"/>
<path d="M29.7143 23.9994C29.7143 20.8452 27.1543 18.2852 24 18.2852C20.8457 18.2852 18.2857 20.8452 18.2857 23.9994C18.2857 26.3423 19.7029 28.3537 21.7143 29.2337V40.8109H26.2857V29.2337C28.2971 28.3537 29.7143 26.3423 29.7143 23.9994Z" stroke="#818181" stroke-width="2" stroke-linejoin="round"/>
<path d="M7.28001 21.0742H19.1543" stroke="#818181" stroke-width="2" stroke-linejoin="round"/>
<path d="M7.28001 25.5996H19.1543" stroke="#818181" stroke-width="2" stroke-linejoin="round"/>
<path d="M29.6229 21.0742H41.4971" stroke="#818181" stroke-width="2" stroke-linejoin="round"/>
<path d="M29.6229 25.5996H41.4971" stroke="#818181" stroke-width="2" stroke-linejoin="round"/>
<path d="M23.9657 25.885C25.0577 25.885 25.9429 24.9998 25.9429 23.9078C25.9429 22.8159 25.0577 21.9307 23.9657 21.9307C22.8738 21.9307 21.9886 22.8159 21.9886 23.9078C21.9886 24.9998 22.8738 25.885 23.9657 25.885Z" stroke="#818181" stroke-width="2" stroke-linejoin="round"/>
</svg>
