<svg width="56" height="56" viewBox="0 0 56 56" fill="none" xmlns="http://www.w3.org/2000/svg">
<path d="M28 34.2134C41.6756 34.2134 52.7619 29.517 52.7619 23.7237C52.7619 17.9303 41.6756 13.2339 28 13.2339C14.3244 13.2339 3.2381 17.9303 3.2381 23.7237C3.2381 29.517 14.3244 34.2134 28 34.2134Z" stroke="black" stroke-width="2" stroke-linecap="round" stroke-linejoin="round"/>
<path d="M27.9505 29.8081C39.2534 29.8081 48.4162 26.9571 48.4162 23.4402C48.4162 19.9233 39.2534 17.0723 27.9505 17.0723C16.6476 17.0723 7.48476 19.9233 7.48476 23.4402C7.48476 26.9571 16.6476 29.8081 27.9505 29.8081Z" stroke="black" stroke-width="2" stroke-linecap="round" stroke-linejoin="round"/>
<path d="M3.2381 23.7241V32.2764C3.2381 38.0642 14.319 42.7661 28 42.7661C41.681 42.7661 52.7619 38.0642 52.7619 32.2764V23.3662" stroke="black" stroke-width="2" stroke-linecap="round" stroke-linejoin="round"/>
<path d="M7.93048 30.2275V38.0147" stroke="black" stroke-width="2" stroke-linecap="round" stroke-linejoin="round"/>
<path d="M13.601 32.9795V40.7666" stroke="black" stroke-width="2" stroke-linecap="round" stroke-linejoin="round"/>
<path d="M19.2714 34.2012V41.9883" stroke="black" stroke-width="2" stroke-linecap="round" stroke-linejoin="round"/>
<path d="M24.9419 34.1274V41.9146" stroke="black" stroke-width="2" stroke-linecap="round" stroke-linejoin="round"/>
<path d="M30.6 34.4355V42.2103" stroke="black" stroke-width="2" stroke-linecap="round" stroke-linejoin="round"/>
<path d="M36.2705 34.4355V42.2103" stroke="black" stroke-width="2" stroke-linecap="round" stroke-linejoin="round"/>
<path d="M41.9409 33.0537V40.8408" stroke="black" stroke-width="2" stroke-linecap="round" stroke-linejoin="round"/>
<path d="M47.6114 30.4619V38.249" stroke="black" stroke-width="2" stroke-linecap="round" stroke-linejoin="round"/>
</svg>
