<svg width="51" height="52" viewBox="0 0 51 52" fill="none" xmlns="http://www.w3.org/2000/svg">
<path d="M25.4939 1.22168V6.65999" stroke="#818181" stroke-width="2" stroke-linecap="round" stroke-linejoin="round"/>
<path d="M32.343 1.38086L30.5018 6.50142" stroke="#818181" stroke-width="2" stroke-linecap="round" stroke-linejoin="round"/>
<path d="M18.657 1.38086L20.4982 6.50142" stroke="#818181" stroke-width="2" stroke-linecap="round" stroke-linejoin="round"/>
<path d="M18.8902 25.7005L23.1985 12.6119L17.6014 10.791L13.2931 23.8796C10.4946 23.4641 7.73284 25.0895 6.82454 27.8514L1.32562 44.5696C0.994212 45.5962 1.54656 46.6961 2.57761 47.0382L13.7718 50.6923C14.8029 51.0223 15.9076 50.4723 16.2513 49.4458L21.7502 32.7153C22.6585 29.9534 21.3942 27.0082 18.8902 25.7005V25.7005Z" stroke="#818181" stroke-width="2" stroke-linecap="round" stroke-linejoin="round"/>
<path d="M16.4844 14.1514L21.9711 15.9356" stroke="#818181" stroke-width="2" stroke-linecap="round" stroke-linejoin="round"/>
<path d="M21.1414 34.5652L6.20935 29.7002L1.93383 42.7088L16.8659 47.5739L21.1414 34.5652Z" stroke="#818181" stroke-width="2" stroke-linecap="round" stroke-linejoin="round"/>
<path d="M32.0975 25.7005L27.7892 12.6119L33.3863 10.791L37.6946 23.8796C40.4932 23.4641 43.2549 25.0895 44.1632 27.8514L49.6621 44.5818C49.9935 45.6084 49.4412 46.7083 48.4101 47.0505L37.2159 50.7045C36.1849 51.0345 35.0802 50.4846 34.7365 49.458L29.2376 32.7276C28.3293 29.9656 29.5935 27.0204 32.0975 25.7128V25.7005Z" stroke="#818181" stroke-width="2" stroke-linecap="round" stroke-linejoin="round"/>
<path d="M34.5032 14.1514L29.0289 15.9356" stroke="#818181" stroke-width="2" stroke-linecap="round" stroke-linejoin="round"/>
<path d="M34.1336 47.5721L49.0657 42.707L44.7902 29.6984L29.8581 34.5634L34.1336 47.5721Z" stroke="#818181" stroke-width="2" stroke-linecap="round" stroke-linejoin="round"/>
</svg>
