<svg width="28" height="28" viewBox="0 0 28 28" fill="none" xmlns="http://www.w3.org/2000/svg">
<g clip-path="url(#clip0_580_82)">
<path d="M27.4815 22.8785C27.8163 22.4203 27.9961 21.8683 27.9949 21.302V7.70502C27.9925 7.3036 27.8995 6.90785 27.7228 6.54688L18.3895 12.7969C21.1515 15.8428 25.3664 20.5009 27.4815 22.8785Z" fill="#2DAAFF"/>
<path d="M12.9219 12.5819C13.2371 12.7916 13.6079 12.9036 13.9872 12.9036C14.3665 12.9036 14.7372 12.7916 15.0524 12.5819L26.1313 5.16868C25.8577 5.07127 25.5697 5.01956 25.2791 5.01562H2.72094C2.34388 5.01653 1.97127 5.09649 1.62744 5.2503L12.9219 12.5819Z" fill="#2DAAFF"/>
<path d="M16.6696 13.9496L16.1973 14.2608C15.5416 14.7037 14.7671 14.9401 13.9743 14.9394C13.201 14.9371 12.4449 14.7121 11.7976 14.2915L10.9864 13.7812C7.90611 17.1996 3.96845 21.5261 1.87384 23.8731C2.1465 23.9668 2.43244 24.0168 2.72092 24.021H25.279C25.4222 24.0187 25.5648 24.0033 25.7052 23.9751C23.6722 21.6792 19.791 17.3884 16.6696 13.9496Z" fill="#2DAAFF"/>
<path d="M0.18995 6.72461C0.0664899 7.03318 0.00207176 7.36195 0 7.69401V21.2909C0.00260186 21.7216 0.110057 22.1452 0.313173 22.5256C2.5464 20.0154 6.61239 15.5256 9.25119 12.6226L0.18995 6.72461Z" fill="#2DAAFF"/>
</g>
<defs>
<clipPath id="clip0_580_82">
<rect width="28" height="19" fill="white" transform="translate(0 5)"/>
</clipPath>
</defs>
</svg>
