<svg width="28" height="28" viewBox="0 0 28 28" fill="none" xmlns="http://www.w3.org/2000/svg">
<path fill-rule="evenodd" clip-rule="evenodd" d="M9.23021 12.7652C11.098 15.4204 13.4615 17.7063 16.1963 19.503C16.5066 19.6907 16.8697 19.7772 17.2335 19.75C17.5972 19.7229 17.9427 19.5834 18.2203 19.3518L20.3418 17.5938C20.6733 17.3141 21.1019 17.1697 21.5391 17.1904C21.9763 17.2111 22.3887 17.3954 22.691 17.7052L26.487 21.5315C26.8156 21.8549 27 22.2925 27 22.7486C27 23.2047 26.8156 23.6422 26.487 23.9657L23.39 26.9646C23.189 27.1614 22.941 27.306 22.6685 27.3851C22.3959 27.4643 22.1075 27.4756 21.8293 27.4181C18.139 26.6783 4.41005 22.8917 1.04486 7.30026C0.979225 7.01957 0.985698 6.72733 1.06372 6.44969C1.14173 6.17205 1.28885 5.91766 1.49192 5.70929L4.6539 2.52735C4.80963 2.36628 4.99628 2.23685 5.20319 2.14646C5.41009 2.05608 5.63318 2.00651 5.85968 2.0006C6.08618 1.99469 6.31166 2.03255 6.52319 2.11202C6.73473 2.19148 6.92817 2.31099 7.09245 2.46371L11.1079 6.15476C11.4382 6.46032 11.6358 6.8784 11.66 7.32256C11.6843 7.76672 11.5331 8.203 11.2379 8.54121L9.38466 10.6492C9.12807 10.9394 8.97758 11.3049 8.95697 11.6881C8.93636 12.0713 9.04682 12.4503 9.27087 12.7652" fill="#2DAAFF"/>
</svg>
